<svg xmlns="http://www.w3.org/2000/svg" viewBox="0 0 369 515.5"><defs><style>.a{fill:#ffd9d9;}.b{fill:#fff0f0;}.c,.d{fill:#ffcfcf;}.d,.f{font-size:33.15px;}.d,.e,.f{font-family:Lobster1.4, Lobster 1.4;}.e{font-size:23.45px;}.e,.i{fill:#ef5252;}.f{fill:#fff;}.g{fill:#f98282;}.h{fill:#f46767;}.j{fill:#f79292;}</style></defs><title>Asset 1</title><rect class="a" y="0.5" width="369" height="515"/><ellipse class="b" cx="252.04" cy="103.01" rx="21.64" ry="9.21"/><ellipse class="b" cx="290.26" cy="95.34" rx="32.24" ry="10.74"/><path class="b" d="M357.48,112.57s0,0,0,0c0-2.54-31.34-4.6-70-4.6s-70,2.06-70,4.6c0,0,0,0,0,0Z"/><ellipse class="b" cx="297.17" cy="104.85" rx="31.78" ry="7.37"/><ellipse class="b" cx="329.87" cy="103.01" rx="15.66" ry="9.21"/><ellipse class="b" cx="74.04" cy="59.01" rx="21.64" ry="9.21"/><ellipse class="b" cx="112.26" cy="51.34" rx="32.24" ry="10.74"/><path class="b" d="M179.48,68.57s0,0,0,0c0-2.54-31.34-4.6-70-4.6s-70,2.06-70,4.6c0,0,0,0,0,0Z"/><ellipse class="b" cx="119.17" cy="60.85" rx="31.78" ry="7.37"/><ellipse class="b" cx="151.87" cy="59.01" rx="15.66" ry="9.21"/><ellipse class="b" cx="97.04" cy="216.01" rx="21.64" ry="9.21"/><ellipse class="b" cx="135.26" cy="208.34" rx="32.24" ry="10.74"/><path class="b" d="M202.48,225.57s0,0,0,0c0-2.54-31.34-4.6-70-4.6s-70,2.06-70,4.6c0,0,0,0,0,0Z"/><ellipse class="b" cx="142.17" cy="217.85" rx="31.78" ry="7.37"/><ellipse class="b" cx="174.87" cy="216.01" rx="15.66" ry="9.21"/><path class="c" d="M287,356l-2.41-.48c-.15.23-.35.08-.51.06a16.23,16.23,0,0,0-5.44,0c-8.45,1.41-14.3,6.21-17.94,13.86-.48,1-.86,2.07-1.28,3.1l-.06.32c.21.27.1.47-.13.64l-.06.32a7.6,7.6,0,0,1-.65,3.22l-.06.32c.23.14.08.34.07.51a23.84,23.84,0,0,0,0,4.56,31.63,31.63,0,0,0,2.7,9.87A83.45,83.45,0,0,0,271,408.2c5.35,7.18,11,14.15,16.46,21.22a27.9,27.9,0,0,0,2.65,3.29l12.09-60.25a41.09,41.09,0,0,0-2.89-6.56,20.94,20.94,0,0,0-9.25-8.69C289.09,356.75,288,356.54,287,356Z"/><path class="c" d="M302.24,372.47l-12.09,60.25a3.15,3.15,0,0,0,.44-.17c8.47-4.85,17.06-9.48,25.49-14.41a91.69,91.69,0,0,0,15.59-10.85,31.54,31.54,0,0,0,8.06-10.81,11.81,11.81,0,0,1,1.07-2.6l1-4.83c-.15-.09-.11-.23-.1-.36a23.65,23.65,0,0,0-.92-9.45c-2.16-6.84-6.35-11.89-13.08-14.67a10.92,10.92,0,0,1-2.22-.88L323,363.2a13.57,13.57,0,0,1-2.56-.09c-5.87-.07-10.75,2.29-15,6.16C304.34,370.28,303.31,371.4,302.24,372.47Z"/><path class="c" d="M59.85,270.37l-2.05.54c0,.24-.24.2-.38.24a14,14,0,0,0-4.21,2.07c-6,4.3-8.73,10.25-8.65,17.56,0,1,.12,1.93.18,2.89l.07.27c.27.13.25.32.14.55l.07.27a6.56,6.56,0,0,1,.72,2.74l.07.27c.23,0,.19.23.25.37a20.58,20.58,0,0,0,1.74,3.53,27.3,27.3,0,0,0,5.84,6.63,72,72,0,0,0,13.66,8.62c6.87,3.54,13.88,6.81,20.82,10.21a24.09,24.09,0,0,0,3.3,1.55l-13.49-51.3a35.47,35.47,0,0,0-4.73-4,18.08,18.08,0,0,0-10.47-3.23C61.77,270.18,60.82,270.45,59.85,270.37Z"/><path class="c" d="M77.94,277.38l13.49,51.3a2.72,2.72,0,0,0,.28-.3c4.73-7,9.63-13.83,14.3-20.84a79.15,79.15,0,0,0,8-14.33,27.23,27.23,0,0,0,2.14-11.44,10.19,10.19,0,0,1-.16-2.42l-1.08-4.11c-.15,0-.17-.13-.21-.24a20.42,20.42,0,0,0-4.3-7,19.19,19.19,0,0,0-15.71-6.41,9.43,9.43,0,0,1-2.06.16l-2.05.54a11.72,11.72,0,0,1-2,.9c-4.58,2.17-7.47,5.85-9.29,10.47C78.74,274.89,78.36,276.14,77.94,277.38Z"/><path class="c" d="M275.25,130.17l-1.31-.66c-.12.11-.21,0-.3,0a9.69,9.69,0,0,0-3.13-.85A13.86,13.86,0,0,0,258,133.77c-.44.51-.82,1.06-1.23,1.59l-.09.18c.08.19,0,.28-.18.35l-.09.18a4.54,4.54,0,0,1-.88,1.75l-.09.18c.11.12,0,.21,0,.31a14.24,14.24,0,0,0-.71,2.63,18.89,18.89,0,0,0,0,6.11,49.84,49.84,0,0,0,3.14,10.72c1.95,5,4.09,9.88,6.13,14.82a16.66,16.66,0,0,0,1,2.31l16.47-32.79a24.54,24.54,0,0,0-.63-4.24,12.51,12.51,0,0,0-4-6.46C276.33,131,275.72,130.66,275.25,130.17Z"/><path class="c" d="M281.43,142.09,265,174.88a1.88,1.88,0,0,0,.28,0c5.64-1.46,11.32-2.77,17-4.28a54.76,54.76,0,0,0,10.69-3.79,18.84,18.84,0,0,0,6.35-5,7.05,7.05,0,0,1,1-1.33l1.32-2.63c-.07-.07,0-.15,0-.22a14.13,14.13,0,0,0,1-5.59,13.27,13.27,0,0,0-5.22-10.52,6.52,6.52,0,0,1-1.14-.86l-1.31-.66a8.11,8.11,0,0,1-1.46-.46,12.74,12.74,0,0,0-9.61,1.18C283,141.16,282.21,141.64,281.43,142.09Z"/><path class="c" d="M115.72,95.17l1.31-.66c.12.11.21,0,.3,0a9.69,9.69,0,0,1,3.13-.85A13.86,13.86,0,0,1,133,98.77c.44.51.82,1.06,1.23,1.59l.09.18c-.08.19,0,.28.18.35l.09.18a4.54,4.54,0,0,0,.88,1.75l.09.18c-.11.12,0,.21,0,.31a14.24,14.24,0,0,1,.71,2.63,18.89,18.89,0,0,1,0,6.11,49.84,49.84,0,0,1-3.14,10.72c-1.95,5-4.09,9.88-6.13,14.82a16.66,16.66,0,0,1-1,2.31l-16.47-32.79a24.54,24.54,0,0,1,.63-4.24,12.51,12.51,0,0,1,4-6.46C114.64,96,115.25,95.66,115.72,95.17Z"/><path class="c" d="M109.54,107.09,126,139.88a1.88,1.88,0,0,1-.28,0c-5.64-1.46-11.32-2.77-17-4.28a54.76,54.76,0,0,1-10.69-3.79,18.84,18.84,0,0,1-6.35-5,7.05,7.05,0,0,0-1-1.33l-1.32-2.63c.07-.07,0-.15,0-.22a14.13,14.13,0,0,1-1-5.59,13.27,13.27,0,0,1,5.22-10.52,6.52,6.52,0,0,0,1.14-.86l1.31-.66a8.11,8.11,0,0,0,1.46-.46,12.74,12.74,0,0,1,9.61,1.18C108,106.16,108.75,106.64,109.54,107.09Z"/><path class="c" d="M216.38,67l.86.2c0,.1.1.08.16.09a5.8,5.8,0,0,1,1.77.81,8.29,8.29,0,0,1,3.78,7.16c0,.4,0,.8,0,1.2l0,.11c-.11.05-.1.14-.05.23l0,.11a2.71,2.71,0,0,0-.27,1.14l0,.11c-.1,0-.08.1-.1.16a8.51,8.51,0,0,1-.68,1.48,11.3,11.3,0,0,1-2.34,2.81,29.8,29.8,0,0,1-5.55,3.72c-2.8,1.54-5.66,3-8.49,4.46a10,10,0,0,1-1.35.68l5-21.37a14.67,14.67,0,0,1,1.91-1.7A7.48,7.48,0,0,1,215.18,67C215.58,66.95,216,67,216.38,67Z"/><path class="c" d="M209,70.11l-5,21.37a1.13,1.13,0,0,1-.12-.12c-2-2.83-4.14-5.61-6.15-8.45a32.74,32.74,0,0,1-3.46-5.83,11.26,11.26,0,0,1-1-4.71,4.22,4.22,0,0,0,0-1l.4-1.71c.06,0,.07-.06.09-.1a8.45,8.45,0,0,1,1.7-2.93,7.94,7.94,0,0,1,6.42-2.83,3.9,3.9,0,0,0,.85,0l.86.2a4.85,4.85,0,0,0,.85.35,7.62,7.62,0,0,1,4,4.22C208.62,69.09,208.79,69.6,209,70.11Z"/><path class="c" d="M310.38,25l.86.2c0,.1.1.08.16.09a5.8,5.8,0,0,1,1.77.81,8.29,8.29,0,0,1,3.78,7.16c0,.4,0,.8,0,1.2l0,.11c-.11.05-.1.14-.05.23l0,.11a2.71,2.71,0,0,0-.27,1.14l0,.11c-.1,0-.08.1-.1.16a8.51,8.51,0,0,1-.68,1.48,11.3,11.3,0,0,1-2.34,2.81,29.8,29.8,0,0,1-5.55,3.72c-2.8,1.54-5.66,3-8.49,4.46a10,10,0,0,1-1.35.68l5-21.37a14.67,14.67,0,0,1,1.91-1.7A7.48,7.48,0,0,1,309.18,25C309.58,24.95,310,25,310.38,25Z"/><path class="c" d="M303,28.11l-5,21.37a1.13,1.13,0,0,1-.12-.12c-2-2.83-4.14-5.61-6.15-8.45a32.74,32.74,0,0,1-3.46-5.83,11.26,11.26,0,0,1-1-4.71,4.22,4.22,0,0,0,0-1l.4-1.71c.06,0,.07-.06.09-.1a8.45,8.45,0,0,1,1.7-2.93,7.94,7.94,0,0,1,6.42-2.83,3.9,3.9,0,0,0,.85,0l.86.2a4.85,4.85,0,0,0,.85.35,7.62,7.62,0,0,1,4,4.22C302.62,27.09,302.79,27.6,303,28.11Z"/><path class="c" d="M239.1,275.71l.82-.33c.07.07.13,0,.18,0A5.8,5.8,0,0,1,242,275a8.29,8.29,0,0,1,7.2,3.71c.23.32.44.67.65,1l0,.11c-.06.11,0,.17.09.22l0,.11a2.71,2.71,0,0,0,.44,1.09l0,.11c-.07.07,0,.13,0,.18a8.51,8.51,0,0,1,.29,1.6,11.3,11.3,0,0,1-.31,3.64,29.8,29.8,0,0,1-2.42,6.23c-1.41,2.87-2.94,5.68-4.41,8.52a10,10,0,0,1-.72,1.33l-8.15-20.37a14.67,14.67,0,0,1,.59-2.49,7.48,7.48,0,0,1,2.68-3.65C238.42,276.13,238.8,276,239.1,275.71Z"/><path class="c" d="M234.81,282.5,243,302.88l-.17,0c-3.29-1.15-6.61-2.22-9.89-3.41a32.74,32.74,0,0,1-6.18-2.8,11.26,11.26,0,0,1-3.53-3.28,4.22,4.22,0,0,0-.54-.84l-.65-1.63s0-.09,0-.13a8.45,8.45,0,0,1-.29-3.38,7.94,7.94,0,0,1,3.64-6,3.9,3.9,0,0,0,.72-.45l.82-.33a4.85,4.85,0,0,0,.89-.2,7.62,7.62,0,0,1,5.67,1.19C233.93,281.87,234.37,282.19,234.81,282.5Z"/><path class="c" d="M35.1,175.71l.82-.33c.07.07.13,0,.18,0A5.8,5.8,0,0,1,38,175a8.29,8.29,0,0,1,7.2,3.71c.23.32.44.67.65,1l0,.11c-.06.11,0,.17.09.22l0,.11a2.71,2.71,0,0,0,.44,1.09l0,.11c-.07.07,0,.13,0,.18a8.51,8.51,0,0,1,.29,1.6,11.3,11.3,0,0,1-.31,3.64A29.8,29.8,0,0,1,44.09,193c-1.41,2.87-2.94,5.68-4.41,8.52a10,10,0,0,1-.72,1.33L30.81,182.5A14.67,14.67,0,0,1,31.4,180a7.48,7.48,0,0,1,2.68-3.65C34.42,176.13,34.8,176,35.1,175.71Z"/><path class="c" d="M30.81,182.5,39,202.88l-.17,0c-3.29-1.15-6.61-2.22-9.89-3.41a32.74,32.74,0,0,1-6.18-2.8,11.26,11.26,0,0,1-3.53-3.28,4.22,4.22,0,0,0-.54-.84L18,190.88s0-.09,0-.13a8.45,8.45,0,0,1-.29-3.38,7.94,7.94,0,0,1,3.64-6,3.9,3.9,0,0,0,.72-.45l.82-.33a4.85,4.85,0,0,0,.89-.2,7.62,7.62,0,0,1,5.67,1.19C29.93,181.87,30.37,182.19,30.81,182.5Z"/><path class="c" d="M332.91,223.59l1.34-.54c.11.12.21,0,.3,0a9.51,9.51,0,0,1,3.14-.57,13.61,13.61,0,0,1,11.82,6.08c.38.53.72,1.1,1.07,1.65l.07.18c-.09.18,0,.28.14.36l.07.18a4.45,4.45,0,0,0,.71,1.79l.07.18c-.12.11,0,.21,0,.3a14,14,0,0,1,.48,2.63,18.54,18.54,0,0,1-.5,6,48.92,48.92,0,0,1-4,10.23c-2.32,4.71-4.82,9.32-7.23,14a16.36,16.36,0,0,1-1.18,2.18l-13.38-33.44a24.09,24.09,0,0,1,1-4.09,12.28,12.28,0,0,1,4.41-6C331.78,224.26,332.41,224,332.91,223.59Z"/><path class="c" d="M325.87,234.73l13.38,33.44a1.85,1.85,0,0,1-.27-.05c-5.4-1.89-10.84-3.65-16.23-5.59a53.75,53.75,0,0,1-10.14-4.6,18.49,18.49,0,0,1-5.8-5.38,6.92,6.92,0,0,0-.89-1.38l-1.07-2.68c.08-.07,0-.14,0-.22a13.86,13.86,0,0,1-.47-5.55,13,13,0,0,1,6-9.85,6.4,6.4,0,0,0,1.19-.75l1.34-.54a8,8,0,0,0,1.47-.33,12.5,12.5,0,0,1,9.3,2C324.43,233.69,325.14,234.22,325.87,234.73Z"/><path class="c" d="M45.1,45.71l.82-.33c.07.07.13,0,.18,0A5.8,5.8,0,0,1,48,45a8.29,8.29,0,0,1,7.2,3.71c.23.32.44.67.65,1l0,.11c-.06.11,0,.17.09.22l0,.11a2.71,2.71,0,0,0,.44,1.09l0,.11c-.07.07,0,.13,0,.18a8.51,8.51,0,0,1,.29,1.6,11.3,11.3,0,0,1-.31,3.64A29.8,29.8,0,0,1,54.09,63c-1.41,2.87-2.94,5.68-4.41,8.52A10,10,0,0,1,49,72.88L40.81,52.5A14.67,14.67,0,0,1,41.4,50a7.48,7.48,0,0,1,2.68-3.65C44.42,46.13,44.8,46,45.1,45.71Z"/><path class="c" d="M40.81,52.5,49,72.88l-.17,0c-3.29-1.15-6.61-2.22-9.89-3.41a32.74,32.74,0,0,1-6.18-2.8,11.26,11.26,0,0,1-3.53-3.28,4.22,4.22,0,0,0-.54-.84L28,60.88s0-.09,0-.13a8.45,8.45,0,0,1-.29-3.38,7.94,7.94,0,0,1,3.64-6,3.9,3.9,0,0,0,.72-.45l.82-.33a4.85,4.85,0,0,0,.89-.2,7.62,7.62,0,0,1,5.67,1.19C39.93,51.87,40.37,52.19,40.81,52.5Z"/><path class="c" d="M50.1,374.71l.82-.33c.07.07.13,0,.18,0A5.8,5.8,0,0,1,53,374a8.29,8.29,0,0,1,7.2,3.71c.23.32.44.67.65,1l0,.11c-.06.11,0,.17.09.22l0,.11a2.71,2.71,0,0,0,.44,1.09l0,.11c-.07.07,0,.13,0,.18a8.51,8.51,0,0,1,.29,1.6,11.3,11.3,0,0,1-.31,3.64A29.8,29.8,0,0,1,59.09,392c-1.41,2.87-2.94,5.68-4.41,8.52a10,10,0,0,1-.72,1.33L45.81,381.5A14.67,14.67,0,0,1,46.4,379a7.48,7.48,0,0,1,2.68-3.65C49.42,375.13,49.8,375,50.1,374.71Z"/><path class="c" d="M45.81,381.5,54,401.88l-.17,0c-3.29-1.15-6.61-2.22-9.89-3.41a32.74,32.74,0,0,1-6.18-2.8,11.26,11.26,0,0,1-3.53-3.28,4.22,4.22,0,0,0-.54-.84L33,389.88s0-.09,0-.13a8.45,8.45,0,0,1-.29-3.38,7.94,7.94,0,0,1,3.64-6,3.9,3.9,0,0,0,.72-.45l.82-.33a4.85,4.85,0,0,0,.89-.2,7.62,7.62,0,0,1,5.67,1.19C44.93,380.87,45.37,381.19,45.81,381.5Z"/><path class="c" d="M178.3,352.51l1.25.47c0,.15.14.14.22.17a8.83,8.83,0,0,1,2.51,1.57,12.63,12.63,0,0,1,4.31,11.56c-.07.6-.2,1.2-.3,1.8l-.06.17c-.17.06-.18.19-.13.33l-.06.17a4.13,4.13,0,0,0-.63,1.67l-.06.17c-.15,0-.14.13-.18.22a13,13,0,0,1-1.32,2.1,17.21,17.21,0,0,1-4.08,3.79,45.41,45.41,0,0,1-9.12,4.54c-4.54,1.78-9.14,3.39-13.71,5.08a15.18,15.18,0,0,1-2.17.76l11.71-31.32a22.36,22.36,0,0,1,3.22-2.2,11.4,11.4,0,0,1,6.77-1.36C177.1,352.28,177.68,352.5,178.3,352.51Z"/><path class="c" d="M166.51,355.77l-11.71,31.32a1.71,1.71,0,0,1-.15-.21c-2.52-4.67-5.16-9.28-7.65-14a49.9,49.9,0,0,1-4.09-9.49,17.16,17.16,0,0,1-.62-7.31,6.43,6.43,0,0,0,.25-1.51l.94-2.51c.09,0,.12-.07.15-.14a12.87,12.87,0,0,1,3.14-4.1,12.09,12.09,0,0,1,10.26-3,5.94,5.94,0,0,0,1.28.23l1.25.47a7.39,7.39,0,0,0,1.21.69,11.61,11.61,0,0,1,5.16,7.15C166.16,354.15,166.32,355,166.51,355.77Z"/><path class="c" d="M136.71,432.58l1.63.61c0,.19.18.18.29.23a11.47,11.47,0,0,1,3.26,2c4.55,4,6.27,9.07,5.6,15-.09.79-.26,1.56-.39,2.34L147,453c-.23.08-.23.24-.16.43l-.08.22a5.37,5.37,0,0,0-.81,2.17l-.08.22c-.19,0-.18.17-.23.28a16.85,16.85,0,0,1-1.71,2.73,22.35,22.35,0,0,1-5.3,4.92,59,59,0,0,1-11.84,5.9c-5.89,2.32-11.86,4.4-17.8,6.6a19.72,19.72,0,0,1-2.82,1L121.4,436.8a29,29,0,0,1,4.18-2.86,14.8,14.8,0,0,1,8.79-1.77C135.16,432.27,135.91,432.57,136.71,432.58Z"/><path class="c" d="M121.4,436.8l-15.21,40.67a2.23,2.23,0,0,1-.2-.27c-3.28-6.07-6.7-12.06-9.93-18.15a64.8,64.8,0,0,1-5.31-12.33,22.29,22.29,0,0,1-.8-9.5,8.34,8.34,0,0,0,.33-2L91.49,432c.12,0,.15-.09.19-.18a16.71,16.71,0,0,1,4.08-5.33,15.71,15.71,0,0,1,13.32-3.93,7.72,7.72,0,0,0,1.66.3l1.63.61a9.59,9.59,0,0,0,1.57.9,15.07,15.07,0,0,1,6.71,9.29C121,434.71,121.15,435.76,121.4,436.8Z"/><text class="d" transform="translate(38 405.01)">Happy Valentines Day!</text><text class="e" transform="translate(68.29 322.52)">You make my knees weak<tspan x="46.76" y="28.14">with your smile</tspan></text><text class="f" transform="translate(36 405.01)">Happy Valentines Day!</text><path class="g" d="M42.5,0s-13,35-4,58,18,79,16,97-6,77-6,79,7,17,6,10,1-85,4-106c0,0-16-84-18-89s-6-19,6-49Z"/><path class="g" d="M316.33,0s13,35,4,58-18,79-16,97,6,77,6,79-7,17-6,10-1-85-4-106c0,0,16-84,18-89s6-19-6-49Z"/><path class="g" d="M186.5,0s-13,35-4,58,18,79,16,97-6,77-6,79,7,17,6,10,1-85,4-106c0,0-16-84-18-89s-6-19,6-49Z"/><path class="g" d="M128.33,0s13,26.34,4,43.64-18,59.45-16,73,6,57.94,6,59.45-7,12.79-6,7.52-1-64-4-79.76c0,0,16-63.21,18-67s6-14.3-6-36.87Z"/><path class="g" d="M262.33,0s13,26.34,4,43.64-18,59.45-16,73,6,57.94,6,59.45-7,12.79-6,7.52-1-64-4-79.76c0,0,16-63.21,18-67s6-14.3-6-36.87Z"/><path class="h" d="M185.51,218.36H184c-.06.16-.2.1-.31.1a10.24,10.24,0,0,0-3.36.68,14.65,14.65,0,0,0-9.37,10.8c-.17.68-.27,1.39-.41,2.08v.21c.16.14.12.28,0,.41v.21a4.79,4.79,0,0,1,0,2.07v.21c.16.06.09.2.1.31a15,15,0,0,0,.58,2.82,20,20,0,0,0,2.89,5.77,52.65,52.65,0,0,0,8.05,8.63c4.2,3.78,8.55,7.39,12.82,11.08a17.6,17.6,0,0,0,2,1.71q0-19.39,0-38.77a25.93,25.93,0,0,0-2.6-3.7,13.21,13.21,0,0,0-6.8-4.22C186.9,218.58,186.18,218.6,185.51,218.36Z"/><path class="i" d="M197,226.68q0,19.39,0,38.77a2,2,0,0,0,.25-.16c4.64-4.05,9.38-8,14-12.08a57.85,57.85,0,0,0,8.29-8.65,19.9,19.9,0,0,0,3.64-7.69,7.45,7.45,0,0,1,.34-1.74V232c-.1,0-.1-.13-.11-.21a14.92,14.92,0,0,0-1.75-5.73,14,14,0,0,0-9.91-7.45,6.89,6.89,0,0,1-1.48-.27H208.7a8.57,8.57,0,0,1-1.6.26,13.46,13.46,0,0,0-8.51,5.67C198,225.06,197.52,225.88,197,226.68Z"/><path class="h" d="M107.51,161.36H106c-.06.16-.2.1-.31.1a10.24,10.24,0,0,0-3.36.68,14.65,14.65,0,0,0-9.37,10.8c-.17.68-.27,1.39-.41,2.08v.21c.16.14.12.28,0,.41v.21a4.79,4.79,0,0,1,0,2.07v.21c.16.06.09.2.1.31a15,15,0,0,0,.58,2.82A20,20,0,0,0,96.07,187a52.65,52.65,0,0,0,8.05,8.63c4.2,3.78,8.55,7.39,12.82,11.08a17.6,17.6,0,0,0,2,1.71q0-19.39,0-38.77a25.93,25.93,0,0,0-2.6-3.7,13.21,13.21,0,0,0-6.8-4.22C108.9,161.58,108.18,161.6,107.51,161.36Z"/><path class="i" d="M119,169.68q0,19.39,0,38.77a2,2,0,0,0,.25-.16c4.64-4.05,9.38-8,14-12.08a57.85,57.85,0,0,0,8.29-8.65,19.9,19.9,0,0,0,3.64-7.69,7.45,7.45,0,0,1,.34-1.74V175c-.1,0-.1-.13-.11-.21a14.92,14.92,0,0,0-1.75-5.73,14,14,0,0,0-9.91-7.45,6.89,6.89,0,0,1-1.48-.27H130.7a8.57,8.57,0,0,1-1.6.26,13.46,13.46,0,0,0-8.51,5.67C120,168.06,119.52,168.88,119,169.68Z"/><path class="h" d="M296.28,219h-1.57c-.06.16-.21.1-.31.1a10.33,10.33,0,0,0-3.39.69,14.77,14.77,0,0,0-9.46,10.9c-.17.69-.28,1.4-.41,2.1V233c.17.14.12.28,0,.42v.21a4.83,4.83,0,0,1,0,2.09v.21c.16.06.09.2.11.31a15.17,15.17,0,0,0,.58,2.84,20.13,20.13,0,0,0,2.92,5.82,53.11,53.11,0,0,0,8.12,8.71c4.24,3.81,8.62,7.45,12.93,11.18a17.76,17.76,0,0,0,2.07,1.72q0-19.55,0-39.11a26.15,26.15,0,0,0-2.62-3.73,13.33,13.33,0,0,0-6.86-4.26C297.68,219.23,297,219.24,296.28,219Z"/><path class="h" d="M307.86,227.39q0,19.55,0,39.11a2,2,0,0,0,.25-.16c4.68-4.09,9.46-8.06,14.1-12.18a58.35,58.35,0,0,0,8.37-8.73,20.07,20.07,0,0,0,3.67-7.76,7.51,7.51,0,0,1,.34-1.75v-3.13c-.1,0-.1-.13-.11-.21a15.05,15.05,0,0,0-1.76-5.78,14.14,14.14,0,0,0-10-7.52,7,7,0,0,1-1.5-.27h-1.57a8.64,8.64,0,0,1-1.61.26,13.57,13.57,0,0,0-8.59,5.72C308.9,225.76,308.4,226.59,307.86,227.39Z"/><path class="i" d="M298.91,224.38H297.7c0,.13-.16.07-.24.08a8,8,0,0,0-2.62.53,11.42,11.42,0,0,0-7.31,8.43c-.13.53-.21,1.08-.32,1.62v.16c.13.11.09.22,0,.32v.16a3.74,3.74,0,0,1,0,1.61v.16c.12,0,.07.16.08.24a11.73,11.73,0,0,0,.45,2.2,15.57,15.57,0,0,0,2.26,4.5,41.07,41.07,0,0,0,6.28,6.73c3.28,2.95,6.67,5.76,10,8.65a13.73,13.73,0,0,0,1.6,1.33q0-15.12,0-30.24a20.22,20.22,0,0,0-2-2.89,10.31,10.31,0,0,0-5.3-3.3C300,224.56,299.43,224.57,298.91,224.38Z"/><path class="i" d="M307.87,230.87q0,15.12,0,30.24a1.55,1.55,0,0,0,.2-.13c3.62-3.16,7.31-6.23,10.9-9.42a45.12,45.12,0,0,0,6.47-6.75,15.52,15.52,0,0,0,2.84-6,5.81,5.81,0,0,1,.26-1.36V235c-.08,0-.08-.1-.08-.16a11.64,11.64,0,0,0-1.36-4.47,10.94,10.94,0,0,0-7.73-5.81,5.37,5.37,0,0,1-1.16-.21H317a6.68,6.68,0,0,1-1.25.2,10.5,10.5,0,0,0-6.64,4.42C308.67,229.61,308.28,230.25,307.87,230.87Z"/><path class="h" d="M300.84,230.15h-.95c0,.09-.12.05-.19.05a7,7,0,0,0-2.06.36,8.25,8.25,0,0,0-5.73,5.78c-.1.37-.17.74-.25,1.11v.11c.1.07.07.15,0,.22v.11a2.25,2.25,0,0,1,0,1.11v.11c.1,0,.06.11.06.17a7.17,7.17,0,0,0,.35,1.51,10.23,10.23,0,0,0,1.77,3.09,30.1,30.1,0,0,0,4.93,4.62c2.57,2,5.23,4,7.84,5.93a10.57,10.57,0,0,0,1.25.91q0-10.37,0-20.74a14,14,0,0,0-1.59-2,8.32,8.32,0,0,0-4.16-2.26C301.69,230.27,301.25,230.28,300.84,230.15Z"/><path class="h" d="M307.87,234.6q0,10.37,0,20.74l.15-.09c2.84-2.17,5.73-4.27,8.55-6.46a33.25,33.25,0,0,0,5.07-4.63,10.13,10.13,0,0,0,2.23-4.11,3.55,3.55,0,0,1,.21-.93v-1.66c-.06,0-.06-.07-.06-.11a7.27,7.27,0,0,0-1.07-3.07,8.54,8.54,0,0,0-6.06-4,4.76,4.76,0,0,1-.91-.15H315a5.93,5.93,0,0,1-1,.14,8.37,8.37,0,0,0-5.21,3C308.5,233.74,308.19,234.18,307.87,234.6Z"/><path class="i" d="M40.8,224H39.29c-.06.16-.2.09-.3.1a10,10,0,0,0-3.28.67,14.31,14.31,0,0,0-9.16,10.55c-.17.67-.27,1.35-.4,2v.2c.16.13.12.27,0,.4v.2a4.68,4.68,0,0,1,0,2v.2c.16.06.09.2.1.3a14.69,14.69,0,0,0,.56,2.75,19.49,19.49,0,0,0,2.83,5.64,51.43,51.43,0,0,0,7.87,8.43c4.1,3.69,8.35,7.22,12.52,10.83A17.2,17.2,0,0,0,52,270q0-18.94,0-37.87a25.33,25.33,0,0,0-2.54-3.61,12.91,12.91,0,0,0-6.64-4.13C42.16,224.22,41.46,224.23,40.8,224Z"/><path class="i" d="M52,232.13q0,18.94,0,37.87a1.94,1.94,0,0,0,.25-.16c4.53-4,9.16-7.8,13.66-11.8a56.51,56.51,0,0,0,8.1-8.45,19.44,19.44,0,0,0,3.56-7.51,7.28,7.28,0,0,1,.33-1.7v-3c-.1,0-.09-.12-.1-.21a14.58,14.58,0,0,0-1.71-5.6,13.7,13.7,0,0,0-9.69-7.28A6.73,6.73,0,0,1,65,224H63.45a8.37,8.37,0,0,1-1.56.25,13.15,13.15,0,0,0-8.32,5.54C53,230.55,52.54,231.35,52,232.13Z"/><path class="j" d="M43.35,229.21H42.17c0,.12-.15.07-.23.07a7.73,7.73,0,0,0-2.54.51A11.06,11.06,0,0,0,32.32,238c-.13.52-.21,1-.31,1.57v.16c.12.1.09.21,0,.31v.16a3.62,3.62,0,0,1,0,1.56v.16c.12,0,.07.15.08.23a11.36,11.36,0,0,0,.44,2.13,15.07,15.07,0,0,0,2.19,4.36,39.77,39.77,0,0,0,6.08,6.52c3.17,2.85,6.46,5.58,9.68,8.37A13.3,13.3,0,0,0,52,264.79q0-14.64,0-29.29a19.58,19.58,0,0,0-2-2.79,10,10,0,0,0-5.14-3.19C44.4,229.38,43.86,229.39,43.35,229.21Z"/><path class="j" d="M52,235.5q0,14.64,0,29.29a1.5,1.5,0,0,0,.19-.12c3.5-3.06,7.08-6,10.56-9.12A43.7,43.7,0,0,0,69,249a15,15,0,0,0,2.75-5.81,5.63,5.63,0,0,1,.25-1.31v-2.35c-.08,0-.07-.1-.08-.16A11.27,11.27,0,0,0,70.65,235a10.59,10.59,0,0,0-7.49-5.63,5.21,5.21,0,0,1-1.12-.2H60.86a6.47,6.47,0,0,1-1.21.2,10.16,10.16,0,0,0-6.43,4.28C52.8,234.28,52.42,234.9,52,235.5Z"/><path class="i" d="M45.22,234.8H44.3c0,.08-.12,0-.18.05a6.83,6.83,0,0,0-2,.35,8,8,0,0,0-5.55,5.6c-.1.35-.16.72-.24,1.08V242c.1.07.07.14,0,.21v.11a2.18,2.18,0,0,1,0,1.07v.11c.09,0,.06.1.06.16a7,7,0,0,0,.34,1.46,9.9,9.9,0,0,0,1.71,3,29.15,29.15,0,0,0,4.77,4.47c2.49,2,5.06,3.83,7.59,5.74a10.24,10.24,0,0,0,1.21.88q0-10,0-20.09a13.59,13.59,0,0,0-1.54-1.92,8.06,8.06,0,0,0-4-2.19C46,234.92,45.62,234.93,45.22,234.8Z"/><path class="i" d="M52,239.11q0,10,0,20.09l.15-.08c2.75-2.1,5.55-4.14,8.28-6.26a32.2,32.2,0,0,0,4.91-4.48,9.81,9.81,0,0,0,2.16-4,3.44,3.44,0,0,1,.2-.9v-1.61c-.06,0-.06-.07-.06-.11a7,7,0,0,0-1-3,8.27,8.27,0,0,0-5.87-3.86,4.61,4.61,0,0,1-.88-.14H59a5.74,5.74,0,0,1-.95.13,8.1,8.1,0,0,0-5,2.94C52.63,238.27,52.34,238.7,52,239.11Z"/><path class="i" d="M240.8,162h-1.52c-.06.16-.2.09-.3.1a10,10,0,0,0-3.28.67,14.31,14.31,0,0,0-9.16,10.55c-.17.67-.27,1.35-.4,2v.2c.16.13.12.27,0,.4v.2a4.68,4.68,0,0,1,0,2v.2c.16.06.09.2.1.3a14.69,14.69,0,0,0,.56,2.75,19.49,19.49,0,0,0,2.83,5.64,51.43,51.43,0,0,0,7.87,8.43c4.1,3.69,8.35,7.22,12.52,10.83a17.2,17.2,0,0,0,2,1.67q0-18.94,0-37.87a25.33,25.33,0,0,0-2.54-3.61,12.91,12.91,0,0,0-6.64-4.13C242.16,162.22,241.46,162.23,240.8,162Z"/><path class="i" d="M252,170.13q0,18.94,0,37.87a1.94,1.94,0,0,0,.25-.16c4.53-4,9.16-7.8,13.66-11.8a56.51,56.51,0,0,0,8.1-8.45,19.44,19.44,0,0,0,3.56-7.51,7.28,7.28,0,0,1,.33-1.7v-3c-.1,0-.09-.12-.1-.21a14.58,14.58,0,0,0-1.71-5.6,13.7,13.7,0,0,0-9.69-7.28A6.73,6.73,0,0,1,265,162h-1.52a8.37,8.37,0,0,1-1.56.25,13.15,13.15,0,0,0-8.32,5.54C253,168.55,252.54,169.35,252,170.13Z"/><path class="j" d="M243.35,167.21h-1.17c0,.12-.15.07-.23.07a7.73,7.73,0,0,0-2.54.51,11.06,11.06,0,0,0-7.08,8.16c-.13.52-.21,1-.31,1.57v.16c.12.1.09.21,0,.31v.16a3.62,3.62,0,0,1,0,1.56v.16c.12,0,.07.15.08.23a11.36,11.36,0,0,0,.44,2.13,15.07,15.07,0,0,0,2.19,4.36,39.77,39.77,0,0,0,6.08,6.52c3.17,2.85,6.46,5.58,9.68,8.37a13.3,13.3,0,0,0,1.55,1.29q0-14.64,0-29.29a19.58,19.58,0,0,0-2-2.79,10,10,0,0,0-5.14-3.19C244.4,167.38,243.86,167.39,243.35,167.21Z"/><path class="j" d="M252,173.5q0,14.64,0,29.29a1.5,1.5,0,0,0,.19-.12c3.5-3.06,7.08-6,10.56-9.12A43.7,43.7,0,0,0,269,187a15,15,0,0,0,2.75-5.81,5.63,5.63,0,0,1,.25-1.31v-2.35c-.08,0-.07-.1-.08-.16a11.27,11.27,0,0,0-1.32-4.33,10.59,10.59,0,0,0-7.49-5.63,5.21,5.21,0,0,1-1.12-.2h-1.17a6.47,6.47,0,0,1-1.21.2,10.16,10.16,0,0,0-6.43,4.28C252.8,172.28,252.42,172.9,252,173.5Z"/><path class="i" d="M245.22,172.8h-.92c0,.08-.12,0-.18.05a6.83,6.83,0,0,0-2,.35,8,8,0,0,0-5.55,5.6c-.1.35-.16.72-.24,1.08V180c.1.07.07.14,0,.21v.11a2.18,2.18,0,0,1,0,1.07v.11c.09,0,.06.1.06.16a7,7,0,0,0,.34,1.46,9.9,9.9,0,0,0,1.71,3,29.15,29.15,0,0,0,4.77,4.47c2.49,2,5.06,3.83,7.59,5.74a10.24,10.24,0,0,0,1.21.88q0-10,0-20.09a13.59,13.59,0,0,0-1.54-1.92,8.06,8.06,0,0,0-4-2.19C246,172.92,245.62,172.93,245.22,172.8Z"/><path class="i" d="M252,177.11q0,10,0,20.09l.15-.08c2.75-2.1,5.55-4.14,8.28-6.26a32.2,32.2,0,0,0,4.91-4.48,9.81,9.81,0,0,0,2.16-4,3.44,3.44,0,0,1,.2-.9v-1.61c-.06,0-.06-.07-.06-.11a7,7,0,0,0-1-3,8.27,8.27,0,0,0-5.87-3.86,4.61,4.61,0,0,1-.88-.14H259a5.74,5.74,0,0,1-.95.13,8.1,8.1,0,0,0-5,2.94C252.63,176.27,252.34,176.7,252,177.11Z"/></svg>